<svg xmlns="http://www.w3.org/2000/svg" width="900" height="600" viewBox="0 0 900 600" role="img" aria-label="Overhead bowl of seasonal garden salad">
<defs>
  <radialGradient id="bg" cx="42%" cy="38%" r="80%">
    <stop offset="0%" stop-color="#FCF9F2"/>
    <stop offset="100%" stop-color="#EDE4D2"/>
  </radialGradient>
  <radialGradient id="plate" cx="40%" cy="35%" r="75%">
    <stop offset="0%" stop-color="#FFFFFF"/>
    <stop offset="78%" stop-color="#FBF8F1"/>
    <stop offset="100%" stop-color="#E7DDC9"/>
  </radialGradient>
  <filter id="soft" x="-30%" y="-30%" width="160%" height="160%">
    <feDropShadow dx="0" dy="14" stdDeviation="20" flood-color="#2B2A22" flood-opacity="0.16"/>
  </filter>
  <filter id="soft2" x="-40%" y="-40%" width="180%" height="180%">
    <feDropShadow dx="0" dy="6" stdDeviation="8" flood-color="#2B2A22" flood-opacity="0.18"/>
  </filter>
  
</defs>
  <rect width="900" height="600" fill="url(#bg)"/>

  <circle cx="450" cy="300" r="230" fill="url(#plate)" filter="url(#soft)"/>
  <circle cx="450" cy="300" r="220" fill="none" stroke="#E7DDC9" stroke-width="2.5" opacity="0.9"/>
  <circle cx="450" cy="300" r="161" fill="none" stroke="#E7DDC9" stroke-width="3" opacity="0.7"/>
  <ellipse cx="441" cy="314" rx="32" ry="17" fill="#5E7445" transform="rotate(148 441 314)"/><ellipse cx="515" cy="334" rx="36" ry="20" fill="#7E9A5C" transform="rotate(7 515 334)"/><ellipse cx="441" cy="303" rx="22" ry="12" fill="#88A766" transform="rotate(11 441 303)"/><ellipse cx="333" cy="260" rx="31" ry="17" fill="#5E7445" transform="rotate(104 333 260)"/><ellipse cx="345" cy="362" rx="21" ry="11" fill="#7E9A5C" transform="rotate(52 345 362)"/><ellipse cx="460" cy="310" rx="26" ry="14" fill="#7E9A5C" transform="rotate(19 460 310)"/><ellipse cx="427" cy="291" rx="22" ry="12" fill="#5E7445" transform="rotate(102 427 291)"/><ellipse cx="401" cy="265" rx="30" ry="16" fill="#6E8A4D" transform="rotate(84 401 265)"/><ellipse cx="493" cy="282" rx="24" ry="13" fill="#7E9A5C" transform="rotate(126 493 282)"/><ellipse cx="453" cy="360" rx="29" ry="16" fill="#6E8A4D" transform="rotate(131 453 360)"/><ellipse cx="419" cy="400" rx="22" ry="12" fill="#88A766" transform="rotate(30 419 400)"/><ellipse cx="381" cy="382" rx="28" ry="15" fill="#5E7445" transform="rotate(138 381 382)"/><ellipse cx="344" cy="259" rx="26" ry="14" fill="#6E8A4D" transform="rotate(107 344 259)"/><ellipse cx="396" cy="277" rx="35" ry="19" fill="#6E8A4D" transform="rotate(85 396 277)"/><ellipse cx="446" cy="295" rx="33" ry="18" fill="#88A766" transform="rotate(51 446 295)"/><ellipse cx="382" cy="346" rx="20" ry="11" fill="#88A766" transform="rotate(64 382 346)"/><ellipse cx="399" cy="267" rx="24" ry="13" fill="#6E8A4D" transform="rotate(23 399 267)"/><ellipse cx="451" cy="341" rx="36" ry="20" fill="#5E7445" transform="rotate(30 451 341)"/><ellipse cx="419" cy="317" rx="22" ry="12" fill="#88A766" transform="rotate(156 419 317)"/><ellipse cx="440" cy="343" rx="26" ry="15" fill="#88A766" transform="rotate(172 440 343)"/><ellipse cx="464" cy="315" rx="24" ry="13" fill="#7E9A5C" transform="rotate(2 464 315)"/><ellipse cx="462" cy="283" rx="25" ry="14" fill="#7E9A5C" transform="rotate(75 462 283)"/><ellipse cx="398" cy="344" rx="37" ry="20" fill="#5E7445" transform="rotate(82 398 344)"/><ellipse cx="538" cy="227" rx="32" ry="18" fill="#88A766" transform="rotate(72 538 227)"/><ellipse cx="399" cy="331" rx="27" ry="15" fill="#7E9A5C" transform="rotate(12 399 331)"/><ellipse cx="456" cy="316" rx="26" ry="14" fill="#5E7445" transform="rotate(18 456 316)"/>
  <circle cx="389" cy="279" r="13" fill="#B5402F"/><circle cx="519" cy="282" r="13" fill="#B5402F"/><circle cx="483" cy="312" r="13" fill="#B5402F"/><circle cx="397" cy="341" r="13" fill="#B5402F"/><circle cx="519" cy="284" r="13" fill="#B5402F"/><circle cx="422" cy="304" r="13" fill="#B5402F"/><circle cx="344" cy="306" r="13" fill="#B5402F"/><circle cx="402" cy="305" r="9" fill="#E0A436"/><circle cx="507" cy="356" r="9" fill="#E0A436"/><circle cx="446" cy="249" r="9" fill="#E0A436"/><circle cx="425" cy="250" r="9" fill="#E0A436"/><circle cx="481" cy="384" r="9" fill="#E0A436"/><circle cx="394" cy="351" r="9" fill="#E0A436"/>
</svg>