<svg xmlns="http://www.w3.org/2000/svg" width="900" height="600" viewBox="0 0 900 600" role="img" aria-label="Chocolate dessert cup with cream">
<defs>
  <radialGradient id="bg" cx="42%" cy="38%" r="80%">
    <stop offset="0%" stop-color="#FCF9F2"/>
    <stop offset="100%" stop-color="#EDE4D2"/>
  </radialGradient>
  <radialGradient id="plate" cx="40%" cy="35%" r="75%">
    <stop offset="0%" stop-color="#FFFFFF"/>
    <stop offset="78%" stop-color="#FBF8F1"/>
    <stop offset="100%" stop-color="#E7DDC9"/>
  </radialGradient>
  <filter id="soft" x="-30%" y="-30%" width="160%" height="160%">
    <feDropShadow dx="0" dy="14" stdDeviation="20" flood-color="#2B2A22" flood-opacity="0.16"/>
  </filter>
  <filter id="soft2" x="-40%" y="-40%" width="180%" height="180%">
    <feDropShadow dx="0" dy="6" stdDeviation="8" flood-color="#2B2A22" flood-opacity="0.18"/>
  </filter>
  <linearGradient id="choc" x1="0" y1="0" x2="0" y2="1">
      <stop offset="0%" stop-color="#5A3A2A"/><stop offset="100%" stop-color="#3B2418"/></linearGradient>
</defs>
  <rect width="900" height="600" fill="url(#bg)"/>

  <ellipse cx="450" cy="470" rx="170" ry="34" fill="#2B2A22" opacity="0.12"/>
  <path d="M340 250 h220 l-26 200 a84 26 0 0 1 -168 0 z" fill="#FCF9F2" stroke="#E7DDC9" stroke-width="3" filter="url(#soft2)"/>
  <ellipse cx="450" cy="250" rx="110" ry="30" fill="#FFFFFF" stroke="#E7DDC9" stroke-width="3"/>
  <ellipse cx="450" cy="254" rx="96" ry="24" fill="url(#choc)"/>
  <ellipse cx="450" cy="242" rx="78" ry="18" fill="#6E4A35"/>
  <path d="M380 240 q70 -34 140 0 q-70 22 -140 0z" fill="#F3E9DA" opacity="0.9"/>
  <circle cx="450" cy="224" r="16" fill="#B5402F"/>
  <path d="M450 208 q10 -16 26 -10" stroke="#5E7445" stroke-width="5" fill="none" stroke-linecap="round"/>
  <g transform="translate(484,228) scale(0.5) rotate(30)">
    <path d="M0 0 C2 -28 -2 -50 0 -76" stroke="#5E7445" stroke-width="3.5" fill="none" stroke-linecap="round"/>
    <ellipse cx="11" cy="-8" rx="9" ry="5" fill="#5E7445" transform="rotate(35)" transform-origin="11 -8"/><ellipse cx="-11" cy="-24" rx="9" ry="5" fill="#5E7445" transform="rotate(-35)" transform-origin="-11 -24"/><ellipse cx="11" cy="-40" rx="9" ry="5" fill="#5E7445" transform="rotate(35)" transform-origin="11 -40"/><ellipse cx="-11" cy="-56" rx="9" ry="5" fill="#5E7445" transform="rotate(-35)" transform-origin="-11 -56"/><ellipse cx="11" cy="-72" rx="9" ry="5" fill="#5E7445" transform="rotate(35)" transform-origin="11 -72"/>
  </g>
</svg>