<svg xmlns="http://www.w3.org/2000/svg" width="900" height="600" viewBox="0 0 900 600" role="img" aria-label="Grilled chicken plate with rice and vegetables">
<defs>
  <radialGradient id="bg" cx="42%" cy="38%" r="80%">
    <stop offset="0%" stop-color="#FCF9F2"/>
    <stop offset="100%" stop-color="#EDE4D2"/>
  </radialGradient>
  <radialGradient id="plate" cx="40%" cy="35%" r="75%">
    <stop offset="0%" stop-color="#FFFFFF"/>
    <stop offset="78%" stop-color="#FBF8F1"/>
    <stop offset="100%" stop-color="#E7DDC9"/>
  </radialGradient>
  <filter id="soft" x="-30%" y="-30%" width="160%" height="160%">
    <feDropShadow dx="0" dy="14" stdDeviation="20" flood-color="#2B2A22" flood-opacity="0.16"/>
  </filter>
  <filter id="soft2" x="-40%" y="-40%" width="180%" height="180%">
    <feDropShadow dx="0" dy="6" stdDeviation="8" flood-color="#2B2A22" flood-opacity="0.18"/>
  </filter>
  <linearGradient id="grill" x1="0" y1="0" x2="1" y2="1">
      <stop offset="0%" stop-color="#C26B43"/><stop offset="100%" stop-color="#A4502E"/></linearGradient>
</defs>
  <rect width="900" height="600" fill="url(#bg)"/>

  <circle cx="450" cy="300" r="230" fill="url(#plate)" filter="url(#soft)"/>
  <circle cx="450" cy="300" r="220" fill="none" stroke="#E7DDC9" stroke-width="2.5" opacity="0.9"/>
  <circle cx="450" cy="300" r="161" fill="none" stroke="#E7DDC9" stroke-width="3" opacity="0.7"/>
  <path d="M330 270 q-10 -70 70 -78 q70 -6 96 50 q40 80 -36 120 q-110 50 -150 -30 q-12 -34 20 -62z" fill="url(#grill)" stroke="#A4502E" stroke-width="3"/>
  <g stroke="#28321F" stroke-width="6" opacity="0.5" stroke-linecap="round">
    <line x1="360" y1="256" x2="420" y2="242"/>
    <line x1="372" y1="282" x2="436" y2="268"/>
    <line x1="384" y1="308" x2="452" y2="294"/>
  </g>
  <ellipse cx="528" cy="358" rx="70" ry="46" fill="#F2E2BC"/>
  <g fill="#E0A436" opacity="0.9">
    <circle cx="510" cy="350" r="6"/><circle cx="532" cy="344" r="6"/>
    <circle cx="548" cy="362" r="6"/><circle cx="520" cy="370" r="6"/>
    <circle cx="542" cy="376" r="6"/>
  </g>
  <ellipse cx="404" cy="378" rx="40" ry="22" fill="#5E7445"/>
  <ellipse cx="380" cy="370" rx="30" ry="16" fill="#7E9A5C"/>
  <g transform="translate(480,234) scale(0.7) rotate(14)">
    <path d="M0 0 C2 -28 -2 -50 0 -76" stroke="#5E7445" stroke-width="3.5" fill="none" stroke-linecap="round"/>
    <ellipse cx="11" cy="-8" rx="9" ry="5" fill="#5E7445" transform="rotate(35)" transform-origin="11 -8"/><ellipse cx="-11" cy="-24" rx="9" ry="5" fill="#5E7445" transform="rotate(-35)" transform-origin="-11 -24"/><ellipse cx="11" cy="-40" rx="9" ry="5" fill="#5E7445" transform="rotate(35)" transform-origin="11 -40"/><ellipse cx="-11" cy="-56" rx="9" ry="5" fill="#5E7445" transform="rotate(-35)" transform-origin="-11 -56"/><ellipse cx="11" cy="-72" rx="9" ry="5" fill="#5E7445" transform="rotate(35)" transform-origin="11 -72"/>
  </g>
</svg>