<svg xmlns="http://www.w3.org/2000/svg" width="900" height="600" viewBox="0 0 900 600" role="img" aria-label="Fresh lemon cooler in a tall glass">
<defs>
  <radialGradient id="bg" cx="42%" cy="38%" r="80%">
    <stop offset="0%" stop-color="#FCF9F2"/>
    <stop offset="100%" stop-color="#EDE4D2"/>
  </radialGradient>
  <radialGradient id="plate" cx="40%" cy="35%" r="75%">
    <stop offset="0%" stop-color="#FFFFFF"/>
    <stop offset="78%" stop-color="#FBF8F1"/>
    <stop offset="100%" stop-color="#E7DDC9"/>
  </radialGradient>
  <filter id="soft" x="-30%" y="-30%" width="160%" height="160%">
    <feDropShadow dx="0" dy="14" stdDeviation="20" flood-color="#2B2A22" flood-opacity="0.16"/>
  </filter>
  <filter id="soft2" x="-40%" y="-40%" width="180%" height="180%">
    <feDropShadow dx="0" dy="6" stdDeviation="8" flood-color="#2B2A22" flood-opacity="0.18"/>
  </filter>
  <linearGradient id="glass" x1="0" y1="0" x2="0" y2="1">
      <stop offset="0%" stop-color="#FBE9A8"/><stop offset="100%" stop-color="#F2C95B"/></linearGradient>
</defs>
  <rect width="900" height="600" fill="url(#bg)"/>

  <ellipse cx="450" cy="526" rx="120" ry="26" fill="#2B2A22" opacity="0.12"/>
  <path d="M370 180 h160 l-20 320 a60 18 0 0 1 -120 0 z" fill="#FFFFFF" opacity="0.55" stroke="#E7DDC9" stroke-width="3" filter="url(#soft2)"/>
  <path d="M384 290 h132 l-16 230 a52 14 0 0 1 -100 0 z" fill="url(#glass)"/>
  <ellipse cx="450" cy="290" rx="66" ry="16" fill="#FFF4CE"/>
  <circle cx="420" cy="370" r="9" fill="#FFFFFF" opacity="0.6"/>
  <circle cx="472" cy="420" r="7" fill="#FFFFFF" opacity="0.6"/>
  <circle cx="452" cy="480" r="6" fill="#FFFFFF" opacity="0.5"/>
  <ellipse cx="480" cy="284" rx="34" ry="12" fill="#F5E06A" stroke="#E0A436" stroke-width="4"/>
  <ellipse cx="480" cy="284" rx="14" ry="5" fill="#FFFBE6"/>
  <path d="M410 180 l24 -64" stroke="#5E7445" stroke-width="8" stroke-linecap="round"/>
  <g transform="translate(420,180) scale(0.6) rotate(8)">
    <path d="M0 0 C2 -28 -2 -50 0 -76" stroke="#5E7445" stroke-width="3.5" fill="none" stroke-linecap="round"/>
    <ellipse cx="11" cy="-8" rx="9" ry="5" fill="#5E7445" transform="rotate(35)" transform-origin="11 -8"/><ellipse cx="-11" cy="-24" rx="9" ry="5" fill="#5E7445" transform="rotate(-35)" transform-origin="-11 -24"/><ellipse cx="11" cy="-40" rx="9" ry="5" fill="#5E7445" transform="rotate(35)" transform-origin="11 -40"/><ellipse cx="-11" cy="-56" rx="9" ry="5" fill="#5E7445" transform="rotate(-35)" transform-origin="-11 -56"/><ellipse cx="11" cy="-72" rx="9" ry="5" fill="#5E7445" transform="rotate(35)" transform-origin="11 -72"/>
  </g>
</svg>